<svg width="1203" height="724" viewBox="0 0 1203 724" fill="none" xmlns="http://www.w3.org/2000/svg">
<g filter="url(#filter0_d_61_419)">
<path d="M1030 358.33L1028.05 361.85C1029.16 359.673 1030 358.33 1030 358.33Z" fill="#B7AB98"/>
<path d="M976.608 294.705L979.187 296.808C979.46 297.026 979.774 297.35 980.048 297.568C978.76 296.691 977.626 295.714 976.608 294.705Z" fill="#0D0D0D"/>
<path d="M1001.6 303.313C1008.51 302.593 1014.73 299.542 1021.44 297.941C1035.05 294.744 1050.6 297.801 1061.8 306.029C1041.19 306.755 1020.66 307.519 1000.04 308.245C995.23 308.392 991.88 306.968 988.72 304.849L980.359 297.892C986.447 302.018 994.268 304.092 1001.6 303.313Z" fill="#0D0D0D"/>
<path d="M980.048 297.568C979.774 297.35 979.46 297.026 979.187 296.808L980.398 297.823C980.242 297.748 980.203 297.642 980.048 297.568Z" fill="#0D0D0D"/>
<path d="M920.296 178.45C920.296 178.45 926.505 167.271 945.354 159.244C964.204 151.217 1009.06 162.756 1028.1 180.309C1047.14 197.862 1039.75 217.03 1046.04 222.915C1052.38 228.731 1086.49 242.216 1098.04 270.421C1109.58 298.627 1092.71 311.788 1092.72 317.464C1092.72 323.139 1106.78 343.987 1094.43 374.93C1082.08 405.873 1038.45 392.125 1028.29 384.487C1020.95 378.889 1025.18 367.551 1028.05 361.849L1030 358.33C1030 358.33 1029.16 359.673 1028.05 361.849L1001.99 408.775C1001.99 408.775 979.961 416.678 931.243 392.033C882.525 367.39 865.915 342.442 865.915 342.442L896.376 287.582C896.376 287.582 872.271 267.612 869.631 252.125C866.953 236.706 873.089 205.591 885.529 191.712C898.24 177.875 920.296 178.45 920.296 178.45Z" fill="#B7AB98"/>
<path d="M920.296 178.45C920.296 178.45 926.505 167.271 945.354 159.244C964.204 151.217 1009.06 162.757 1028.1 180.309C1030.84 182.837 1032.99 185.349 1034.79 187.956C1026.66 185.384 1017.84 184.404 1009.3 185.044C993.082 186.383 978.109 193.466 966.3 203.194C957.538 210.448 950.269 219.636 948.369 230.339C946.468 241.042 951.1 253.291 961.589 259.081C967.847 249.76 974.302 240.27 984.193 233.992C993.972 227.746 1008.13 225.51 1018.54 231.614C1016.45 242.486 1006.41 250.091 999.29 258.828C992.171 267.564 988.235 281.223 997.339 288.972C1005.58 295.961 1018.34 293.406 1029.4 292.661C1046.24 291.621 1063.64 296.515 1077.18 306.034C1077.04 313.212 1067.56 317.153 1059.63 316.339C1051.7 315.524 1044.37 311.678 1036.48 310.269C1028.59 308.859 1018.9 311.044 1016.77 317.886C1015.67 321.289 1016.4 325.828 1013.04 327.627C1010.37 329.06 1006.79 327.7 1004.02 326.292C986.954 317.973 969.809 309.616 952.702 301.366C947.909 298.991 942.648 296.569 937.255 297.05C932.714 297.415 928.809 299.829 925.336 302.361C916.567 308.74 909.172 316.733 903.803 325.693C902.806 327.312 901.888 329.144 902.251 330.975C902.573 332.526 903.708 333.853 904.881 334.937C911.49 341.32 920.259 345.417 928.562 349.815C946.569 359.282 963.314 370.851 978.243 384.084C979.807 385.529 981.45 387.012 982.278 388.891C983.385 391.514 982.67 394.403 981.562 396.929C979.692 401.186 976.613 404.779 972.906 407.725C962.211 405.327 948.432 400.672 931.399 392.107C882.681 367.464 866.07 342.517 866.07 342.517L896.532 287.656C896.532 287.656 872.426 267.687 869.787 252.199C867.109 236.78 873.248 205.666 885.685 191.786C898.24 177.875 920.296 178.45 920.296 178.45Z" fill="#A8A094"/>
<path d="M916.998 173.384C920.191 169.233 927.895 160.863 942.833 154.549C959.982 147.281 991.402 153.895 1012.29 163.862C1020.39 167.729 1027.07 172.048 1032.07 176.705C1045.56 189.165 1047.21 202.523 1048.32 211.347C1048.74 214.336 1049.19 218.483 1050.13 219.28C1051.19 220.22 1054.35 222.164 1057.78 224.15C1071.35 232.198 1094.01 245.541 1103.54 268.681C1112.99 291.784 1104.86 306.064 1100.54 313.861C1099.77 315.241 1098.81 316.967 1098.62 317.662C1098.78 318.437 1099.42 320.487 1100.01 322.08C1103.34 331.526 1110.17 351.192 1099.91 376.763C1095.95 386.743 1088.74 393.516 1078.56 396.949C1061.4 402.639 1040.81 396.57 1031.3 392.032C1028.73 390.806 1026.59 389.521 1024.91 388.284C1023.66 387.337 1022.6 386.223 1021.66 385.074L1007.18 411.159C1006.6 412.194 1005.64 413.045 1004.4 413.499C1003.43 413.823 981.046 421.474 934.207 399.121C932.417 398.268 930.546 397.374 928.791 396.449C879.215 371.396 862.061 346.014 861.275 344.942C860.254 343.408 860.2 341.549 861.045 340.031L889.665 288.482C882.55 282.12 866.594 266.475 864.277 252.712C861.353 235.43 868.257 202.935 881.349 188.408C892.44 176.068 909.778 173.78 916.998 173.384ZM874.525 241.89C873.818 246.005 873.879 248.914 875.18 251.542C876.324 253.922 878.512 256.014 882.065 258.494C889.285 263.598 897.965 266.431 906.756 268.356C913.601 269.876 916.369 266.134 916.166 259.752C916.054 255.335 914.199 251.045 912.73 246.765C907.452 231.59 907.17 214.346 916.08 201.14C914.143 207.112 912.674 213.307 911.789 219.519C911.234 223.182 910.95 226.887 911.25 230.609C912.242 243.739 920.675 255.358 930.145 265.114C932.336 267.381 934.806 270.568 937.575 272.326C940.734 274.27 945.091 275.126 948.594 276.624C954.049 279.052 960.489 283.609 965.931 278.96C968.553 276.72 969.695 273.424 970.835 270.302C975.023 258.857 980.174 246.913 990.72 239.637C994.738 236.841 999.381 234.867 1003.99 233.138C989.812 242.696 979.236 256.416 974.186 271.901C971.189 281.208 971.563 289.766 979.11 296.771L976.532 294.668C977.626 295.714 978.758 296.691 979.968 297.53C980.086 297.674 980.242 297.748 980.439 297.929C983.484 300.43 985.987 302.847 988.758 304.78L992.001 307.462C998.603 312.795 1005.59 317.612 1014.08 320.614C990.178 312.877 970.529 296.779 947.47 287.173C939.876 283.985 931.702 281.482 923.471 281.57C902.623 281.834 896.539 299.007 888.761 313.016C883.358 322.746 877.994 332.407 872.591 342.137C877.844 348.657 895.771 368.211 933.927 387.553C935.682 388.478 937.397 389.297 939.111 390.114C939.423 390.263 939.658 390.374 939.969 390.524C948.763 392.974 960.704 395.79 965.395 394.975C973.267 393.581 967.43 381.369 951.388 370.134C935.347 358.902 877.189 339.006 877.189 339.006C877.189 339.006 938.018 352.844 971.026 374.356C989.599 386.536 997.312 394.841 1000.53 399.871C1000.18 399.265 1003.37 394.762 1003.67 394.211C1006.09 389.865 1007.55 388.294 1004.33 383.789C1002.25 380.79 1000.1 377.928 997.515 375.299C993.29 371.013 988.14 367.682 983.029 364.283C992.205 366.043 1000.86 370.52 1007.31 376.831C1007.7 377.191 1008.13 377.658 1008.75 377.782C1009.11 377.862 1009.45 377.765 1009.8 377.671C1014.33 376.254 1016.71 371.976 1018.74 368.319C1020.58 365.006 1022.78 362.824 1025.16 359.948C1030.78 353.377 1030.9 343.045 1028.32 335.091C1027.72 333.323 1026.93 331.55 1025.49 330.249C1027.78 331.433 1029.28 333.541 1030.65 335.506C1033.16 339.149 1035.36 342.993 1036.44 347.087C1037.88 352.838 1035.91 359.054 1033.11 364.091C1030.09 370.243 1028.09 377.755 1031.8 380.485C1032.35 380.921 1033.64 381.799 1036.13 382.988C1046.18 387.785 1062.44 391.178 1074.13 387.332C1081.14 385.004 1086.2 380.168 1089.09 372.996C1098.05 350.647 1092.18 333.879 1089.01 324.858C1087.86 321.603 1087.06 319.304 1087.01 317.271C1087.03 314.574 1088.37 312.159 1090.13 308.984C1094.23 301.776 1100.4 290.841 1092.65 271.954C1084.5 252.18 1063.87 239.979 1051.55 232.701C1047.1 230.056 1043.91 228.181 1041.87 226.338C1038.08 222.87 1037.5 217.879 1036.84 212.151C1035.81 203.889 1034.53 193.589 1023.93 183.732C1019.83 179.94 1014.01 176.206 1007.08 172.897C986.111 162.893 959.484 158.828 947.718 163.863C930.959 170.967 925.207 180.792 925.169 180.861C924.212 182.587 922.277 183.584 920.142 183.525C919.948 183.52 900.647 183.126 890.018 194.989C878.467 207.982 877.358 225.958 874.525 241.89Z" fill="#0D0D0D"/>
<path d="M964.539 164.819C974.937 164.02 985.601 167.363 994.224 172.962C995.318 173.658 996.449 174.459 997 175.596C997.553 176.732 997.446 178.165 996.365 178.871C987.876 175.519 977.845 173.7 969.679 177.223C966.428 178.639 963.763 180.772 961.1 182.906C958.091 185.31 955.079 187.714 952.067 190.118C950.332 191.472 948.671 192.862 946.504 193.573C944.413 194.321 941.81 194.389 939.9 193.215C938.145 192.116 937.236 190.199 936.99 188.335C936.538 185.064 937.64 181.837 939.288 179.045C944.275 170.775 954.138 165.617 964.539 164.819Z" fill="#0D0D0D"/>
<path d="M1044.81 360.596C1045.78 360.623 1046.68 361.139 1047.5 361.616C1052.3 364.342 1060.83 368.501 1066.29 366.305C1066.79 366.109 1067.22 365.875 1067.68 365.573C1071.55 362.877 1072.86 357.133 1079.04 358.25C1079.74 358.409 1080.52 358.606 1081.14 358.378C1081.76 358.15 1082.18 357.566 1082.49 357.014C1083.48 355.044 1085.82 340.71 1090.16 349.238C1091.38 351.654 1091.44 355.089 1091.35 357.574C1091.27 363.212 1089.41 368.696 1085.91 373.224C1079.8 381.043 1068.84 385.504 1058.12 384.575C1051.9 384.055 1045.63 381.675 1041.91 377.016C1038.19 372.359 1037.98 365.452 1042.34 361.684C1043.07 361.074 1043.84 360.569 1044.81 360.596Z" fill="#0D0D0D"/>
</g>
<path d="M502.611 481.713C502.611 500.913 498.261 518.913 489.561 535.713C480.861 552.213 468.861 566.763 453.561 579.363C438.261 591.663 419.961 601.413 398.661 608.613C377.661 615.513 354.861 618.963 330.261 618.963L170.061 618.963L170.061 570.813L351.411 570.813C358.011 570.813 365.061 569.313 372.561 566.313C380.061 563.013 387.261 558.813 394.161 553.713C401.061 548.313 407.511 542.163 413.511 535.263C419.511 528.363 424.461 521.163 428.361 513.663L170.061 513.663L170.061 344.913L354.561 344.913C378.261 344.913 399.261 349.113 417.561 357.513C436.161 365.613 451.761 376.263 464.361 389.463C476.961 402.663 486.411 417.363 492.711 433.563C499.311 449.763 502.611 465.813 502.611 481.713ZM241.161 465.063L434.661 465.063C431.961 455.763 427.611 446.763 421.611 438.063C415.611 429.363 408.561 421.713 400.461 415.113C392.661 408.513 384.261 403.263 375.261 399.363C366.261 395.163 357.261 393.063 348.261 393.063L241.161 393.063L241.161 465.063ZM548.43 570.813L621.78 570.813L621.78 618.963L548.43 618.963L548.43 570.813ZM667.771 483.513C667.771 462.813 672.421 443.313 681.721 425.013C691.021 406.713 703.771 390.813 719.971 377.313C736.171 363.813 755.071 353.163 776.671 345.363C798.271 337.263 821.521 333.213 846.421 333.213C871.921 333.213 895.471 337.113 917.071 344.913C938.971 352.713 957.871 363.363 973.771 376.863C989.971 390.363 1002.57 406.263 1011.57 424.563C1020.57 442.863 1025.07 462.513 1025.07 483.513C1025.07 504.513 1020.42 524.013 1011.12 542.013C1002.12 560.013 989.671 575.613 973.771 588.813C957.871 602.013 938.971 612.363 917.071 619.863C895.171 627.363 871.621 631.113 846.421 631.113C821.521 631.113 798.271 627.363 776.671 619.863C755.071 612.363 736.171 602.013 719.971 588.813C703.771 575.613 691.021 560.013 681.721 542.013C672.421 524.013 667.771 504.513 667.771 483.513ZM734.371 483.513C734.371 504.513 741.721 522.813 756.421 538.413L883.321 393.963C871.921 390.363 859.621 388.563 846.421 388.563C830.821 388.563 816.121 391.113 802.321 396.213C788.821 401.313 776.971 408.363 766.771 417.363C756.871 426.063 748.921 436.113 742.921 447.513C737.221 458.913 734.371 470.913 734.371 483.513ZM959.371 483.513C959.371 462.813 952.171 444.363 937.771 428.163L813.571 571.713C823.771 574.413 834.421 575.763 845.521 575.763C861.121 575.763 875.821 573.513 889.621 569.013C903.421 564.213 915.421 557.763 925.621 549.663C936.121 541.563 944.371 531.963 950.371 520.863C956.371 509.463 959.371 497.013 959.371 483.513Z" fill="#F14A16"/>
<path d="M1000.14 479.454C1009.45 459.487 999.172 412.991 999.172 412.991L994.672 406.991L987.172 398.491C987.172 398.491 976.755 388.454 974.672 386.991C970.703 384.202 978.295 390.215 974.672 386.991C971.885 384.511 977.443 389.488 974.672 386.991C969.527 382.355 959.074 374.614 953.172 370.991C947.281 367.375 941.647 364.998 935.342 362.168C928.984 359.315 925.047 357.305 918.672 354.491C909.112 350.271 904.049 348.554 894.283 344.837C888.714 342.717 880.012 339.435 880.012 339.435L874.672 337.991C873.123 337.786 864.672 336.991 864.672 336.991L858.672 336.991L849.172 339.435L834.518 340.455C834.518 340.455 783.295 352.899 765.226 368.737L814.889 389.644C818.816 381.222 849.693 378.672 861.973 377.147C874.252 375.622 891.291 382.29 904.729 388.557C918.168 394.823 940.431 408.378 947.156 418.765C953.881 429.151 960.64 453.664 956.712 462.086L1000.14 479.454Z" fill="#F14A16"/>
<defs>
<filter id="filter0_d_61_419" x="848.457" y="143.471" width="271.466" height="287.549" filterUnits="userSpaceOnUse" color-interpolation-filters="sRGB">
<feFlood flood-opacity="0" result="BackgroundImageFix"/>
<feColorMatrix in="SourceAlpha" type="matrix" values="0 0 0 0 0 0 0 0 0 0 0 0 0 0 0 0 0 0 127 0" result="hardAlpha"/>
<feOffset dy="4"/>
<feGaussianBlur stdDeviation="6"/>
<feComposite in2="hardAlpha" operator="out"/>
<feColorMatrix type="matrix" values="0 0 0 0 0 0 0 0 0 0 0 0 0 0 0 0 0 0 0.25 0"/>
<feBlend mode="normal" in2="BackgroundImageFix" result="effect1_dropShadow_61_419"/>
<feBlend mode="normal" in="SourceGraphic" in2="effect1_dropShadow_61_419" result="shape"/>
</filter>
</defs>
</svg>
